# xmcd
#
# Track frame offsets:
#   150
#   15375
#   32919
#   51111
#   68241
#   84677
#   101613
#   114278
#   130368
#   147856
#   162324
#   177551
#   195103
#   213315
#   230457
#   246863
#   263813
#   276464
#   292476
#   309955
#
# Disc length: 4325 seconds
#
# Revision: 0
# Processed by: cddbd v1.5.1PL0 Copyright (c) Steve Scherf et al.
# Submitted via: uFREEDB ActiveX Control 1.5
#
DISCID=2710e314
DTITLE=João e Nilton - Musa inspiradora
DYEAR=1900
DGENRE=Country
TTITLE0=Musa inspiradora
TTITLE1=Cama de capim
TTITLE2=Cowboy do volante
TTITLE3=Onde está você
TTITLE4=Meu sertão
TTITLE5=Sonhei com ela
TTITLE6=Tipo assim
TTITLE7=Erros de amor
TTITLE8=Procura-se
TTITLE9=Última pergunta
TTITLE10=playback
TTITLE11=playback
TTITLE12=playback
TTITLE13=playback
TTITLE14=playback
TTITLE15=playback
TTITLE16=playback
TTITLE17=playback
TTITLE18=playback
TTITLE19=playback
EXTD=
EXTT0=
EXTT1=
EXTT2=
EXTT3=
EXTT4=
EXTT5=
EXTT6=
EXTT7=
EXTT8=
EXTT9=
EXTT10=
EXTT11=
EXTT12=
EXTT13=
EXTT14=
EXTT15=
EXTT16=
EXTT17=
EXTT18=
EXTT19=
PLAYORDER=
